<svg xmlns="http://www.w3.org/2000/svg" width="256" height="256" viewBox="0 0 256 256">
  <defs>
    <linearGradient id="tile" x1="0" y1="0" x2="0" y2="1">
      <stop offset="0" stop-color="#1C2430"/><stop offset="1" stop-color="#10141B"/>
    </linearGradient>
  </defs>
  <!-- blued-steel tile -->
  <rect x="8" y="8" width="240" height="240" rx="56" fill="url(#tile)" stroke="#2E3947" stroke-width="1.5"/>
  <!-- escape wheel: fine asymmetric ratchet teeth as a ring (brass) -->
  <path fill-rule="evenodd" fill="#E0A23C" d="M128.00,36.00 L128.00,24.00 L156.43,40.50 L160.14,29.09 L182.08,53.57 L189.13,43.86 L202.43,73.92 L212.14,66.87 L215.50,99.57 L226.91,95.86 L220.00,128.00 L232.00,128.00 L215.50,156.43 L226.91,160.14 L202.43,182.08 L212.14,189.13 L182.08,202.43 L189.13,212.14 L156.43,215.50 L160.14,226.91 L128.00,220.00 L128.00,232.00 L99.57,215.50 L95.86,226.91 L73.92,202.43 L66.87,212.14 L53.57,182.08 L43.86,189.13 L40.50,156.43 L29.09,160.14 L36.00,128.00 L24.00,128.00 L40.50,99.57 L29.09,95.86 L53.57,73.92 L43.86,66.87 L73.92,53.57 L66.87,43.86 L99.57,40.50 L95.86,29.09 Z M192,128 a64,64 0 1,0 -128,0 a64,64 0 1,0 128,0 Z"/>
  <!-- blued hub + brass rim + filament arbor -->
  <circle cx="128" cy="128" r="64" fill="#141A22"/>
  <circle cx="128" cy="128" r="63" fill="none" stroke="#B87A2A" stroke-width="2" stroke-opacity="0.7"/>
  <circle cx="128" cy="128" r="10" fill="#F5A65A"/>
  <!-- pallet lever engaging the top tooth (the escapement catch — sets it apart from a plain gear) -->
  <path d="M120,14 L136,14 Q140,14 140,18 L138,40 Q138,44 134,44 L122,44 Q118,44 118,40 L116,18 Q116,14 120,14 Z" fill="#B87A2A"/>
</svg>
